<svg xmlns="http://www.w3.org/2000/svg" width="1600" height="1200" viewBox="0 0 1600 1200">
  <defs>
    <linearGradient id="bg2" x1="0" y1="0" x2="1" y2="1">
      <stop offset="0%" stop-color="#fff7ed"/>
      <stop offset="100%" stop-color="#ffedd5"/>
    </linearGradient>
  </defs>
  <rect width="100%" height="100%" fill="url(#bg2)"/>
  <g transform="translate(140,180)">
    <text x="0" y="-30" font-family="Verdana, Geneva, sans-serif" font-size="50" fill="#7c2d12" font-weight="700">Balance Bike Collection</text>
    <!-- Row 1 -->
    <g transform="translate(0,160)">
      <g transform="translate(0,0)">
        <circle cx="100" cy="120" r="50" fill="none" stroke="#ef4444" stroke-width="12"/>
        <circle cx="300" cy="120" r="50" fill="none" stroke="#ef4444" stroke-width="12"/>
        <line x1="100" y1="120" x2="200" y2="70" stroke="#b91c1c" stroke-width="12" stroke-linecap="round"/>
        <line x1="200" y1="70" x2="300" y2="120" stroke="#b91c1c" stroke-width="12" stroke-linecap="round"/>
      </g>
      <g transform="translate(360,0)">
        <circle cx="100" cy="120" r="50" fill="none" stroke="#10b981" stroke-width="12"/>
        <circle cx="300" cy="120" r="50" fill="none" stroke="#10b981" stroke-width="12"/>
        <line x1="100" y1="120" x2="200" y2="70" stroke="#047857" stroke-width="12" stroke-linecap="round"/>
        <line x1="200" y1="70" x2="300" y2="120" stroke="#047857" stroke-width="12" stroke-linecap="round"/>
      </g>
      <g transform="translate(720,0)">
        <circle cx="100" cy="120" r="50" fill="none" stroke="#06b6d4" stroke-width="12"/>
        <circle cx="300" cy="120" r="50" fill="none" stroke="#06b6d4" stroke-width="12"/>
        <line x1="100" y1="120" x2="200" y2="70" stroke="#0e7490" stroke-width="12" stroke-linecap="round"/>
        <line x1="200" y1="70" x2="300" y2="120" stroke="#0e7490" stroke-width="12" stroke-linecap="round"/>
      </g>
    </g>
    <!-- Row 2 -->
    <g transform="translate(0,420)">
      <g transform="translate(0,0)">
        <circle cx="100" cy="120" r="50" fill="none" stroke="#a78bfa" stroke-width="12"/>
        <circle cx="300" cy="120" r="50" fill="none" stroke="#a78bfa" stroke-width="12"/>
        <line x1="100" y1="120" x2="200" y2="70" stroke="#6d28d9" stroke-width="12" stroke-linecap="round"/>
        <line x1="200" y1="70" x2="300" y2="120" stroke="#6d28d9" stroke-width="12" stroke-linecap="round"/>
      </g>
      <g transform="translate(360,0)">
        <circle cx="100" cy="120" r="50" fill="none" stroke="#f59e0b" stroke-width="12"/>
        <circle cx="300" cy="120" r="50" fill="none" stroke="#f59e0b" stroke-width="12"/>
        <line x1="100" y1="120" x2="200" y2="70" stroke="#b45309" stroke-width="12" stroke-linecap="round"/>
        <line x1="200" y1="70" x2="300" y2="120" stroke="#b45309" stroke-width="12" stroke-linecap="round"/>
      </g>
      <g transform="translate(720,0)">
        <circle cx="100" cy="120" r="50" fill="none" stroke="#22c55e" stroke-width="12"/>
        <circle cx="300" cy="120" r="50" fill="none" stroke="#22c55e" stroke-width="12"/>
        <line x1="100" y1="120" x2="200" y2="70" stroke="#15803d" stroke-width="12" stroke-linecap="round"/>
        <line x1="200" y1="70" x2="300" y2="120" stroke="#15803d" stroke-width="12" stroke-linecap="round"/>
      </g>
    </g>
  </g>
</svg>
