<svg xmlns="http://www.w3.org/2000/svg" width="1600" height="1200" viewBox="0 0 1600 1200">
  <defs>
    <linearGradient id="bg" x1="0" y1="0" x2="1" y2="1">
      <stop offset="0%" stop-color="#f8fafc"/>
      <stop offset="100%" stop-color="#e2e8f0"/>
    </linearGradient>
  </defs>
  <rect width="100%" height="100%" fill="url(#bg)"/>
  <g transform="translate(160,200)">
    <text x="0" y="-40" font-family="Verdana, Geneva, sans-serif" font-size="54" fill="#0f172a" font-weight="700">Kids Balance Bikes Showroom</text>
    <!-- Bike 1 -->
    <g transform="translate(0,200)">
      <circle cx="140" cy="180" r="60" fill="none" stroke="#0ea5e9" stroke-width="14"/>
      <circle cx="420" cy="180" r="60" fill="none" stroke="#0ea5e9" stroke-width="14"/>
      <line x1="140" y1="180" x2="260" y2="120" stroke="#0369a1" stroke-width="14" stroke-linecap="round"/>
      <line x1="260" y1="120" x2="420" y2="180" stroke="#0369a1" stroke-width="14" stroke-linecap="round"/>
      <line x1="260" y1="120" x2="260" y2="70" stroke="#0369a1" stroke-width="14" stroke-linecap="round"/>
      <line x1="260" y1="70" x2="300" y2="60" stroke="#0369a1" stroke-width="14" stroke-linecap="round"/>
      <line x1="260" y1="120" x2="220" y2="160" stroke="#fb7185" stroke-width="12" stroke-linecap="round"/>
    </g>
    <!-- Bike 2 -->
    <g transform="translate(520,260)">
      <circle cx="140" cy="180" r="60" fill="none" stroke="#22c55e" stroke-width="14"/>
      <circle cx="420" cy="180" r="60" fill="none" stroke="#22c55e" stroke-width="14"/>
      <line x1="140" y1="180" x2="260" y2="120" stroke="#16a34a" stroke-width="14" stroke-linecap="round"/>
      <line x1="260" y1="120" x2="420" y2="180" stroke="#16a34a" stroke-width="14" stroke-linecap="round"/>
      <line x1="260" y1="120" x2="260" y2="70" stroke="#16a34a" stroke-width="14" stroke-linecap="round"/>
      <line x1="260" y1="70" x2="300" y2="60" stroke="#16a34a" stroke-width="14" stroke-linecap="round"/>
      <line x1="260" y1="120" x2="220" y2="160" stroke="#f97316" stroke-width="12" stroke-linecap="round"/>
    </g>
    <!-- Bike 3 -->
    <g transform="translate(1040,220)">
      <circle cx="140" cy="180" r="60" fill="none" stroke="#a78bfa" stroke-width="14"/>
      <circle cx="420" cy="180" r="60" fill="none" stroke="#a78bfa" stroke-width="14"/>
      <line x1="140" y1="180" x2="260" y2="120" stroke="#7c3aed" stroke-width="14" stroke-linecap="round"/>
      <line x1="260" y1="120" x2="420" y2="180" stroke="#7c3aed" stroke-width="14" stroke-linecap="round"/>
      <line x1="260" y1="120" x2="260" y2="70" stroke="#7c3aed" stroke-width="14" stroke-linecap="round"/>
      <line x1="260" y1="70" x2="300" y2="60" stroke="#7c3aed" stroke-width="14" stroke-linecap="round"/>
      <line x1="260" y1="120" x2="220" y2="160" stroke="#eab308" stroke-width="12" stroke-linecap="round"/>
    </g>
  </g>
</svg>
