<svg xmlns="http://www.w3.org/2000/svg" width="1600" height="1200" viewBox="0 0 1600 1200">
  <defs>
    <linearGradient id="bg3" x1="0" y1="0" x2="1" y2="1">
      <stop offset="0%" stop-color="#ecfeff"/>
      <stop offset="100%" stop-color="#cffafe"/>
    </linearGradient>
  </defs>
  <rect width="100%" height="100%" fill="url(#bg3)"/>
  <g transform="translate(160,200)">
    <text x="0" y="-40" font-family="Verdana, Geneva, sans-serif" font-size="54" fill="#0f172a" font-weight="700">Craftsmanship Workshop</text>
    <!-- Bike -->
    <g transform="translate(0,220)">
      <circle cx="180" cy="200" r="70" fill="none" stroke="#0284c7" stroke-width="16"/>
      <circle cx="500" cy="200" r="70" fill="none" stroke="#0284c7" stroke-width="16"/>
      <line x1="180" y1="200" x2="320" y2="120" stroke="#0ea5e9" stroke-width="16" stroke-linecap="round"/>
      <line x1="320" y1="120" x2="500" y2="200" stroke="#0ea5e9" stroke-width="16" stroke-linecap="round"/>
      <line x1="320" y1="120" x2="320" y2="60" stroke="#0ea5e9" stroke-width="16" stroke-linecap="round"/>
      <line x1="320" y1="60" x2="370" y2="50" stroke="#0ea5e9" stroke-width="16" stroke-linecap="round"/>
    </g>
    <!-- Wrench Icon -->
    <g transform="translate(800,160)">
      <rect x="0" y="120" width="420" height="220" rx="24" fill="#e2e8f0" stroke="#94a3b8" stroke-width="6"/>
      <g transform="translate(40,160) rotate(-25)">
        <rect x="0" y="0" width="40" height="240" rx="20" fill="#64748b"/>
        <circle cx="20" cy="240" r="20" fill="#475569"/>
        <path d="M0,40 C60,0 120,60 80,100 L140,160 L100,200 L40,140 C0,180 60,240 20,280" fill="#64748b"/>
      </g>
      <text x="210" y="250" text-anchor="middle" font-family="Verdana, Geneva, sans-serif" font-size="32" fill="#334155" font-weight="700">Precision Tools</text>
    </g>
  </g>
</svg>
